<?xml version="1.0" standalone="no"?>
<!DOCTYPE svg PUBLIC "-//W3C//DTD SVG 20010904//EN"
 "http://www.w3.org/TR/2001/REC-SVG-20010904/DTD/svg10.dtd">
<svg version="1.0" xmlns="http://www.w3.org/2000/svg"
 width="700.000000pt" height="700.000000pt" viewBox="0 0 700.000000 700.000000"
 preserveAspectRatio="xMidYMid meet">
<metadata>
Created by potrace 1.14, written by Peter Selinger 2001-2017
</metadata>
<g transform="translate(0.000000,700.000000) scale(0.100000,-0.100000)"
fill="#000000" stroke="none">
<path d="M3215 6989 c-712 -62 -1396 -340 -1939 -787 -127 -105 -340 -316
-451 -447 -447 -529 -722 -1171 -805 -1880 -18 -154 -24 -507 -11 -660 73
-836 426 -1599 1011 -2185 285 -286 578 -495 945 -675 349 -171 692 -274 1105
-332 177 -25 638 -25 835 0 819 104 1525 451 2091 1029 275 280 461 540 634
888 185 371 291 724 346 1155 26 196 26 658 1 835 -58 415 -161 755 -332 1105
-181 369 -389 660 -674 945 -549 548 -1239 885 -2031 995 -139 20 -567 28
-725 14z m685 -788 c741 -113 1373 -499 1815 -1107 254 -348 420 -756 485
-1190 27 -180 37 -487 21 -654 -62 -641 -332 -1218 -781 -1671 -460 -463
-1028 -733 -1685 -800 -162 -16 -478 -6 -659 21 -1188 179 -2117 1108 -2296
2296 -27 181 -37 497 -21 659 47 461 193 874 442 1250 210 318 453 559 777
775 354 236 743 378 1192 436 155 20 535 12 710 -15z"/>
<path d="M3547 4016 l-1036 -1236 -156 -415 c-85 -229 -155 -420 -155 -425 0
-5 174 94 388 219 l387 228 1037 1234 c570 679 1037 1237 1037 1240 1 7 -444
382 -457 387 -5 1 -475 -553 -1045 -1232z m-774 -1459 c59 -50 105 -92 103
-95 -9 -9 -450 -261 -453 -259 -1 2 38 113 87 247 50 134 90 246 90 248 0 2
15 -9 33 -24 17 -15 80 -68 140 -117z"/>
</g>
</svg>
